<svg width="480" height="209" viewBox="0 0 480 209" fill="none" xmlns="http://www.w3.org/2000/svg">
<rect y="67" width="209" height="75" fill="#1D8CD6"/>
<path d="M214.92 79.88V78.8H226.04C228.653 78.8 230.653 79.4267 232.04 80.68C233.453 81.9067 234.16 83.5467 234.16 85.6V86.84C234.16 88.4667 233.707 89.8533 232.8 91C231.92 92.12 230.653 92.8933 229 93.32L234.12 102.76C234.467 103.4 234.72 103.853 234.88 104.12C235.04 104.36 235.187 104.52 235.32 104.6C235.48 104.653 235.693 104.693 235.96 104.72L237.76 104.96V106H231.72L225.4 93.68H221.48V102.76C221.48 103.693 221.52 104.24 221.6 104.4C221.68 104.56 221.933 104.667 222.36 104.72L224.56 104.96V106H214.92V104.96L217.12 104.72C217.547 104.667 217.8 104.56 217.88 104.4C217.96 104.24 218 103.693 218 102.76V82.04C218 81.1067 217.96 80.56 217.88 80.4C217.8 80.24 217.547 80.1333 217.12 80.08L214.92 79.88ZM226.04 80.08H221.48V92.4H226.04C227.427 92.4 228.507 91.96 229.28 91.08C230.08 90.1733 230.48 88.8133 230.48 87V85.44C230.48 83.6267 230.08 82.28 229.28 81.4C228.507 80.52 227.427 80.08 226.04 80.08ZM238.534 93.32V91.92H249.094V93.32H238.534ZM252.597 87.24V86.2H258.757V89.4C259.557 88.1467 260.45 87.24 261.437 86.68C262.45 86.0933 263.57 85.8 264.797 85.8C267.09 85.8 268.863 86.6667 270.117 88.4C271.397 90.1333 272.037 92.56 272.037 95.68V96.48C272.037 99.52 271.303 101.933 269.837 103.72C268.37 105.507 266.33 106.4 263.717 106.4C261.85 106.4 260.263 105.827 258.957 104.68V111.28C258.957 112.187 258.997 112.72 259.077 112.88C259.157 113.067 259.41 113.187 259.837 113.24L262.837 113.44V114.52H252.597V113.44L254.797 113.24C255.223 113.187 255.477 113.067 255.557 112.88C255.637 112.72 255.677 112.187 255.677 111.28V89.44C255.677 88.5067 255.637 87.96 255.557 87.8C255.477 87.64 255.223 87.5333 254.797 87.48L252.597 87.24ZM264.277 87.24C263.45 87.24 262.583 87.5067 261.677 88.04C260.797 88.5733 259.89 89.6533 258.957 91.28V102.72C260.103 104.293 261.623 105.08 263.517 105.08C265.25 105.08 266.503 104.427 267.277 103.12C268.05 101.787 268.437 99.9733 268.437 97.68V94.48C268.437 91.9733 268.077 90.1467 267.357 89C266.637 87.8267 265.61 87.24 264.277 87.24ZM298.16 104.96V106H288.72V104.96L290.92 104.72C291.346 104.667 291.6 104.56 291.68 104.4C291.76 104.24 291.8 103.693 291.8 102.76V92.8C291.8 90.8267 291.48 89.44 290.84 88.64C290.2 87.8133 289.293 87.4 288.12 87.4C287.213 87.4 286.226 87.6667 285.16 88.2C284.093 88.7333 283.093 89.7867 282.16 91.36V102.76C282.16 103.693 282.2 104.24 282.28 104.4C282.36 104.56 282.613 104.667 283.04 104.72L285.24 104.96V106H275.8V104.96L278 104.72C278.426 104.667 278.68 104.56 278.76 104.4C278.84 104.24 278.88 103.693 278.88 102.76V79.64C278.88 78.7067 278.84 78.16 278.76 78C278.68 77.84 278.426 77.7333 278 77.68L275.8 77.48V76.4H282.16V89.24C283.093 88.04 284.16 87.1733 285.36 86.64C286.56 86.08 287.746 85.8 288.92 85.8C290.893 85.8 292.413 86.4133 293.48 87.64C294.546 88.84 295.08 90.5467 295.08 92.76V102.76C295.08 103.693 295.12 104.24 295.2 104.4C295.28 104.56 295.533 104.667 295.96 104.72L298.16 104.96ZM316.974 106.28C314.894 106.28 313.667 105.32 313.294 103.4C312.36 104.467 311.334 105.24 310.214 105.72C309.094 106.173 307.987 106.4 306.894 106.4C305.027 106.4 303.654 105.88 302.774 104.84C301.894 103.8 301.454 102.547 301.454 101.08C301.454 99.5067 301.987 98.2667 303.054 97.36C304.147 96.4267 306.027 95.96 308.694 95.96H313.214V92.72C313.214 90.5867 312.84 89.12 312.094 88.32C311.374 87.4933 310.387 87.08 309.134 87.08C308.334 87.08 307.614 87.24 306.974 87.56C306.334 87.88 305.867 88.4667 305.574 89.32C305.307 90.1467 305.28 91.36 305.494 92.96L302.334 92.48C302.2 91.2267 302.36 90.1067 302.814 89.12C303.294 88.1067 304.067 87.3067 305.134 86.72C306.227 86.1067 307.587 85.8 309.214 85.8C311.16 85.8 312.654 86.1333 313.694 86.8C314.734 87.44 315.454 88.28 315.854 89.32C316.28 90.36 316.494 91.4933 316.494 92.72V101.72C316.494 103.08 316.64 103.933 316.934 104.28C317.254 104.627 317.6 104.8 317.974 104.8C318.214 104.8 318.467 104.747 318.734 104.64C319 104.507 319.294 104.307 319.614 104.04L320.334 105.04C319.934 105.387 319.454 105.68 318.894 105.92C318.36 106.16 317.72 106.28 316.974 106.28ZM308.014 104.72C308.76 104.72 309.56 104.52 310.414 104.12C311.294 103.693 312.227 102.853 313.214 101.6V97.24H309.134C307.64 97.24 306.547 97.5467 305.854 98.16C305.187 98.7467 304.854 99.6667 304.854 100.92C304.854 102.12 305.107 103.053 305.614 103.72C306.147 104.387 306.947 104.72 308.014 104.72ZM322.095 87.28V86.2H328.255V89.4C329.189 88.1467 330.122 87.24 331.055 86.68C332.015 86.0933 332.989 85.8 333.975 85.8C334.829 85.8 335.629 86.0533 336.375 86.56C337.122 87.0667 337.749 87.88 338.255 89L335.655 90.56C335.255 89.6 334.802 88.9333 334.295 88.56C333.789 88.1867 333.229 88 332.615 88C331.949 88 331.282 88.2133 330.615 88.64C329.975 89.0667 329.255 89.8667 328.455 91.04V102.76C328.455 103.693 328.495 104.253 328.575 104.44C328.655 104.6 328.909 104.693 329.335 104.72L332.335 104.96V106H322.095V104.96L324.295 104.72C324.722 104.667 324.975 104.56 325.055 104.4C325.135 104.24 325.175 103.693 325.175 102.76V89.44C325.175 88.5067 325.135 87.96 325.055 87.8C324.975 87.64 324.722 87.5333 324.295 87.48L322.095 87.28ZM361.633 104.96V106H352.193V104.96L354.393 104.72C354.82 104.667 355.073 104.56 355.153 104.4C355.233 104.24 355.273 103.693 355.273 102.76V92.8C355.273 90.8267 354.967 89.44 354.353 88.64C353.767 87.8133 352.9 87.4 351.753 87.4C350.927 87.4 349.993 87.6667 348.953 88.2C347.94 88.7333 346.967 89.76 346.033 91.28V102.76C346.033 103.693 346.073 104.24 346.153 104.4C346.233 104.56 346.487 104.667 346.913 104.72L349.113 104.96V106H339.673V104.96L341.873 104.72C342.3 104.667 342.553 104.56 342.633 104.4C342.713 104.24 342.753 103.693 342.753 102.76V89.44C342.753 88.5067 342.713 87.96 342.633 87.8C342.553 87.64 342.3 87.5333 341.873 87.48L339.673 87.28V86.2H345.833V89.44C346.767 88.1867 347.82 87.2667 348.993 86.68C350.193 86.0933 351.38 85.8 352.553 85.8C355.433 85.8 357.287 87.12 358.113 89.76C359.1 88.3733 360.193 87.3733 361.393 86.76C362.62 86.12 363.847 85.8 365.073 85.8C366.967 85.8 368.433 86.4133 369.473 87.64C370.54 88.84 371.073 90.5467 371.073 92.76V102.76C371.073 103.693 371.113 104.24 371.193 104.4C371.273 104.56 371.527 104.667 371.953 104.72L374.153 104.96V106H364.713V104.96L366.913 104.72C367.34 104.667 367.593 104.56 367.673 104.4C367.753 104.24 367.793 103.693 367.793 102.76V92.8C367.793 90.8267 367.487 89.44 366.873 88.64C366.287 87.8133 365.42 87.4 364.273 87.4C363.447 87.4 362.5 87.68 361.433 88.24C360.393 88.7733 359.407 89.8267 358.473 91.4C358.5 91.6133 358.513 91.84 358.513 92.08C358.54 92.2933 358.553 92.52 358.553 92.76V102.76C358.553 103.693 358.593 104.24 358.673 104.4C358.753 104.56 359.007 104.667 359.433 104.72L361.633 104.96ZM385.83 87.08C384.364 87.08 383.217 87.6933 382.39 88.92C381.59 90.12 381.19 92.1067 381.19 94.88V97.28C381.19 100.08 381.59 102.093 382.39 103.32C383.217 104.52 384.55 105.12 386.39 105.12C387.644 105.12 388.657 104.8 389.43 104.16C390.204 103.52 390.724 102.413 390.99 100.84L393.11 101.44C392.63 103.253 391.75 104.533 390.47 105.28C389.19 106.027 387.764 106.4 386.19 106.4C383.31 106.4 381.15 105.507 379.71 103.72C378.297 101.907 377.59 99.4933 377.59 96.48V95.68C377.59 92.6933 378.297 90.3067 379.71 88.52C381.124 86.7067 383.164 85.8 385.83 85.8C387.537 85.8 388.95 86.1333 390.07 86.8C391.217 87.4667 392.03 88.3733 392.51 89.52C392.99 90.64 393.124 91.88 392.91 93.24L389.75 93.72C390.044 91.5867 389.844 89.9467 389.15 88.8C388.484 87.6533 387.377 87.08 385.83 87.08ZM406.27 108C405.684 109.627 405.044 110.947 404.35 111.96C403.657 113 402.83 113.747 401.87 114.2C400.91 114.68 399.71 114.92 398.27 114.92V111.72C400.19 111.72 401.644 111.413 402.63 110.8C403.617 110.213 404.404 109.107 404.99 107.48L405.51 106H404.35L398.47 89.2C398.204 88.4267 398.004 87.9733 397.87 87.84C397.737 87.68 397.457 87.5733 397.03 87.52L394.99 87.28V86.2H404.11V87.28L402.07 87.52C401.697 87.5467 401.484 87.64 401.43 87.8C401.377 87.96 401.484 88.4267 401.75 89.2L406.55 103.04L411.39 89.16C411.63 88.3867 411.724 87.9333 411.67 87.8C411.644 87.6667 411.43 87.5733 411.03 87.52L408.95 87.28V86.2H416.27V87.28L414.23 87.52C413.83 87.5733 413.564 87.6667 413.43 87.8C413.297 87.9333 413.097 88.3867 412.83 89.16L406.27 108Z" fill="black"/>
<rect x="67" y="209" width="209" height="75" transform="rotate(-90 67 209)" fill="#1D8CD6"/>
<path d="M230.76 130.66V132.91C230.76 135.83 230.09 138.13 228.75 139.81C227.41 141.47 225.49 142.3 222.99 142.3C220.47 142.3 218.54 141.47 217.2 139.81C215.88 138.13 215.22 135.83 215.22 132.91V130.66C215.22 127.76 215.88 125.48 217.2 123.82C218.54 122.14 220.47 121.3 222.99 121.3C225.49 121.3 227.41 122.14 228.75 123.82C230.09 125.48 230.76 127.76 230.76 130.66ZM227.91 129.16C227.91 126.66 227.49 124.89 226.65 123.85C225.83 122.79 224.61 122.26 222.99 122.26C221.37 122.26 220.14 122.79 219.3 123.85C218.48 124.89 218.07 126.66 218.07 129.16V134.41C218.07 136.91 218.48 138.69 219.3 139.75C220.14 140.81 221.37 141.34 222.99 141.34C224.61 141.34 225.83 140.81 226.65 139.75C227.49 138.69 227.91 136.91 227.91 134.41V129.16ZM246.81 122.41V121.6H252.54V122.41L250.89 122.56C250.57 122.6 250.38 122.69 250.32 122.83C250.26 122.95 250.23 123.35 250.23 124.03V142H248.76L237.84 123.58V139.57C237.84 140.25 237.87 140.66 237.93 140.8C237.99 140.92 238.18 141 238.5 141.04L240.15 141.22V142H234.42V141.22L236.07 141.04C236.39 141 236.58 140.92 236.64 140.8C236.7 140.66 236.73 140.25 236.73 139.57V124.03C236.73 123.35 236.7 122.95 236.64 122.83C236.58 122.69 236.39 122.6 236.07 122.56L234.42 122.41V121.6H239.61L249.12 137.68V124.03C249.12 123.35 249.09 122.95 249.03 122.83C248.97 122.69 248.78 122.6 248.46 122.56L246.81 122.41ZM268.003 137.05H268.813V142H255.163V141.22L256.813 141.04C257.133 141 257.323 140.92 257.383 140.8C257.443 140.68 257.473 140.27 257.473 139.57V124.03C257.473 123.33 257.443 122.92 257.383 122.8C257.323 122.68 257.133 122.6 256.813 122.56L255.163 122.41V121.6H262.393V122.41L260.743 122.56C260.423 122.6 260.233 122.68 260.173 122.8C260.113 122.92 260.083 123.33 260.083 124.03V141.04H265.513C265.993 141.04 266.333 141.03 266.533 141.01C266.733 140.97 266.863 140.9 266.923 140.8C267.003 140.68 267.073 140.5 267.133 140.26L268.003 137.05ZM270.602 122.41V121.6H277.832V122.41L276.182 122.56C275.862 122.6 275.672 122.68 275.612 122.8C275.552 122.92 275.522 123.33 275.522 124.03V139.57C275.522 140.27 275.552 140.68 275.612 140.8C275.672 140.92 275.862 141 276.182 141.04L277.832 141.22V142H270.602V141.22L272.252 141.04C272.572 141 272.762 140.92 272.822 140.8C272.882 140.68 272.912 140.27 272.912 139.57V124.03C272.912 123.33 272.882 122.92 272.822 122.8C272.762 122.68 272.572 122.6 272.252 122.56L270.602 122.41ZM293.1 122.41V121.6H298.83V122.41L297.18 122.56C296.86 122.6 296.67 122.69 296.61 122.83C296.55 122.95 296.52 123.35 296.52 124.03V142H295.05L284.13 123.58V139.57C284.13 140.25 284.16 140.66 284.22 140.8C284.28 140.92 284.47 141 284.79 141.04L286.44 141.22V142H280.71V141.22L282.36 141.04C282.68 141 282.87 140.92 282.93 140.8C282.99 140.66 283.02 140.25 283.02 139.57V124.03C283.02 123.35 282.99 122.95 282.93 122.83C282.87 122.69 282.68 122.6 282.36 122.56L280.71 122.41V121.6H285.9L295.41 137.68V124.03C295.41 123.35 295.38 122.95 295.32 122.83C295.26 122.69 295.07 122.6 294.75 122.56L293.1 122.41ZM315.042 137.11H315.822V142H301.452V141.22L303.102 141.04C303.422 141 303.612 140.92 303.672 140.8C303.732 140.68 303.762 140.27 303.762 139.57V124.03C303.762 123.33 303.732 122.92 303.672 122.8C303.612 122.68 303.422 122.6 303.102 122.56L301.452 122.41V121.6H315.432V126.49H314.682L313.812 123.34C313.752 123.1 313.682 122.93 313.602 122.83C313.542 122.71 313.412 122.64 313.212 122.62C313.012 122.58 312.672 122.56 312.192 122.56H306.372V131.23H310.392C310.872 131.23 311.212 131.22 311.412 131.2C311.612 131.16 311.742 131.09 311.802 130.99C311.882 130.87 311.952 130.69 312.012 130.45L312.582 128.2H313.362V135.22H312.582L312.012 132.97C311.952 132.73 311.882 132.56 311.802 132.46C311.742 132.34 311.612 132.27 311.412 132.25C311.212 132.21 310.872 132.19 310.392 132.19H306.372V141.04H312.552C313.032 141.04 313.372 141.03 313.572 141.01C313.772 140.97 313.902 140.9 313.962 140.8C314.042 140.68 314.112 140.5 314.172 140.26L315.042 137.11ZM325.651 122.41V121.6H334.171C336.151 121.6 337.661 122.1 338.701 123.1C339.741 124.08 340.261 125.39 340.261 127.03V127.9C340.261 129.54 339.741 130.86 338.701 131.86C337.661 132.86 336.151 133.36 334.171 133.36H330.571V139.57C330.571 140.27 330.601 140.69 330.661 140.83C330.721 140.95 330.911 141.02 331.231 141.04L333.481 141.22V142H325.651V141.22L327.301 141.04C327.621 141 327.811 140.92 327.871 140.8C327.931 140.68 327.961 140.27 327.961 139.57V124.03C327.961 123.33 327.931 122.92 327.871 122.8C327.811 122.68 327.621 122.6 327.301 122.56L325.651 122.41ZM334.171 122.56H330.571V132.4H334.171C336.391 132.4 337.501 131.04 337.501 128.32V126.61C337.501 123.91 336.391 122.56 334.171 122.56ZM361.778 141.22V142H354.548V141.22L356.198 141.04C356.518 141 356.708 140.92 356.768 140.8C356.828 140.68 356.857 140.27 356.857 139.57V132.19H347.798V139.57C347.798 140.27 347.828 140.68 347.888 140.8C347.948 140.92 348.138 141 348.458 141.04L350.108 141.22V142H342.878V141.22L344.528 141.04C344.848 141 345.038 140.92 345.098 140.8C345.158 140.68 345.188 140.27 345.188 139.57V124.03C345.188 123.33 345.158 122.92 345.098 122.8C345.038 122.68 344.848 122.6 344.528 122.56L342.878 122.41V121.6H350.108V122.41L348.458 122.56C348.138 122.6 347.948 122.68 347.888 122.8C347.828 122.92 347.798 123.33 347.798 124.03V131.23H356.857V124.03C356.857 123.33 356.828 122.92 356.768 122.8C356.708 122.68 356.518 122.6 356.198 122.56L354.548 122.41V121.6H361.778V122.41L360.128 122.56C359.808 122.6 359.618 122.68 359.558 122.8C359.498 122.92 359.468 123.33 359.468 124.03V139.57C359.468 140.27 359.498 140.68 359.558 140.8C359.618 140.92 359.808 141 360.128 141.04L361.778 141.22ZM368.845 141.22V142H363.145V141.22L364.765 141.04C364.985 141.02 365.145 140.99 365.245 140.95C365.345 140.89 365.435 140.77 365.515 140.59C365.615 140.39 365.735 140.05 365.875 139.57L371.665 121.6H373.555L379.405 139.57C379.545 140.05 379.655 140.39 379.735 140.59C379.835 140.77 379.935 140.89 380.035 140.95C380.135 140.99 380.285 141.02 380.485 141.04L382.135 141.22V142H374.845V141.22L376.495 141.04C376.815 141 376.985 140.92 377.005 140.8C377.045 140.66 376.955 140.25 376.735 139.57L375.505 135.73H368.185L366.955 139.57C366.735 140.25 366.635 140.66 366.655 140.8C366.695 140.92 366.875 141 367.195 141.04L368.845 141.22ZM368.485 134.77H375.205L371.845 124.33L368.485 134.77ZM383.483 122.41V121.6H391.823C393.783 121.6 395.283 122.07 396.323 123.01C397.383 123.93 397.913 125.16 397.913 126.7V127.63C397.913 128.85 397.573 129.89 396.893 130.75C396.233 131.59 395.283 132.17 394.043 132.49L397.883 139.57C398.143 140.05 398.333 140.39 398.453 140.59C398.573 140.77 398.683 140.89 398.783 140.95C398.903 140.99 399.063 141.02 399.263 141.04L400.613 141.22V142H396.083L391.343 132.76H388.403V139.57C388.403 140.27 388.433 140.68 388.493 140.8C388.553 140.92 388.743 141 389.063 141.04L390.713 141.22V142H383.483V141.22L385.133 141.04C385.453 141 385.643 140.92 385.703 140.8C385.763 140.68 385.793 140.27 385.793 139.57V124.03C385.793 123.33 385.763 122.92 385.703 122.8C385.643 122.68 385.453 122.6 385.133 122.56L383.483 122.41ZM391.823 122.56H388.403V131.8H391.823C392.863 131.8 393.673 131.47 394.253 130.81C394.853 130.13 395.153 129.11 395.153 127.75V126.58C395.153 125.22 394.853 124.21 394.253 123.55C393.673 122.89 392.863 122.56 391.823 122.56ZM425.123 141.22V142H417.893V141.22L419.543 141.04C419.863 141 420.053 140.92 420.113 140.8C420.173 140.66 420.203 140.25 420.203 139.57V123.31L413.963 139.6H411.923L405.653 123.31V139.57C405.653 140.25 405.683 140.66 405.743 140.8C405.803 140.92 405.993 141 406.313 141.04L407.963 141.22V142H402.233V141.22L403.883 141.04C404.203 141 404.393 140.92 404.453 140.8C404.513 140.66 404.543 140.25 404.543 139.57V124.03C404.543 123.35 404.513 122.95 404.453 122.83C404.393 122.69 404.203 122.6 403.883 122.56L402.233 122.41V121.6H407.723L413.753 137.35L419.783 121.6H425.123V122.41L423.473 122.56C423.153 122.6 422.963 122.69 422.903 122.83C422.843 122.95 422.813 123.35 422.813 124.03V139.57C422.813 140.25 422.843 140.66 422.903 140.8C422.963 140.92 423.153 141 423.473 141.04L425.123 141.22ZM432.244 141.22V142H426.544V141.22L428.164 141.04C428.384 141.02 428.544 140.99 428.644 140.95C428.744 140.89 428.834 140.77 428.914 140.59C429.014 140.39 429.134 140.05 429.274 139.57L435.064 121.6H436.954L442.804 139.57C442.944 140.05 443.054 140.39 443.134 140.59C443.234 140.77 443.334 140.89 443.434 140.95C443.534 140.99 443.684 141.02 443.884 141.04L445.534 141.22V142H438.244V141.22L439.894 141.04C440.214 141 440.384 140.92 440.404 140.8C440.444 140.66 440.354 140.25 440.134 139.57L438.904 135.73H431.584L430.354 139.57C430.134 140.25 430.034 140.66 430.054 140.8C430.094 140.92 430.274 141 430.594 141.04L432.244 141.22ZM431.884 134.77H438.604L435.244 124.33L431.884 134.77ZM454.465 142.3C451.925 142.3 449.985 141.45 448.645 139.75C447.325 138.05 446.665 135.77 446.665 132.91V130.66C446.665 128.78 446.945 127.14 447.505 125.74C448.085 124.34 448.935 123.25 450.055 122.47C451.175 121.69 452.545 121.3 454.165 121.3C455.665 121.3 456.905 121.6 457.885 122.2C458.865 122.78 459.575 123.55 460.015 124.51C460.455 125.45 460.595 126.48 460.435 127.6L457.855 128.23C458.075 126.31 457.855 124.84 457.195 123.82C456.535 122.78 455.525 122.26 454.165 122.26C452.645 122.26 451.485 122.8 450.685 123.88C449.905 124.96 449.515 126.72 449.515 129.16V134.41C449.515 136.87 449.935 138.64 450.775 139.72C451.615 140.8 452.865 141.34 454.525 141.34C455.185 141.34 455.815 141.23 456.415 141.01C457.015 140.77 457.525 140.37 457.945 139.81C458.365 139.25 458.625 138.47 458.725 137.47L460.585 137.95C460.145 139.55 459.365 140.68 458.245 141.34C457.145 141.98 455.885 142.3 454.465 142.3ZM474.473 141.22V142H467.243V141.22L468.893 141.04C469.213 141 469.403 140.92 469.463 140.8C469.523 140.68 469.553 140.27 469.553 139.57V133.3L464.723 123.85C464.523 123.45 464.363 123.17 464.243 123.01C464.143 122.83 464.033 122.72 463.913 122.68C463.813 122.62 463.653 122.58 463.433 122.56L461.903 122.41V121.6H469.163V122.41L467.633 122.56C467.333 122.6 467.173 122.68 467.153 122.8C467.153 122.92 467.293 123.27 467.573 123.85L471.653 132.04L475.823 123.85C476.123 123.27 476.263 122.92 476.243 122.8C476.223 122.68 476.063 122.6 475.763 122.56L474.233 122.41V121.6H479.783V122.41L478.223 122.56C478.023 122.58 477.863 122.62 477.743 122.68C477.643 122.72 477.533 122.83 477.413 123.01C477.313 123.17 477.163 123.45 476.963 123.85L472.163 133.24V139.57C472.163 140.27 472.193 140.68 472.253 140.8C472.313 140.92 472.503 141 472.823 141.04L474.473 141.22Z" fill="black"/>
</svg>
